Simulation
nRows=44
nColumns=15
endheader
time  TH_x TH_y TH_z SC_y  SC_z  SC_x  AC_y  AC_z  AC_x  GH_y  GH_z  GH_yy  EL_x  PS_y
0.75  0.000000  0.000000  0.000000  -33.95571391116178  2.358890108241842  20.058202966084536  60.95839142698476  1.6389956955690534  -12.61196425266573  20.592855003079073  45.40814243269706  -17.410303352480227  19.955764864672965  0.000000
0.765  0.000000  0.000000  0.000000  -34.12528964942551  2.5087674232578654  20.313881648951785  61.05734690628925  2.0084902181432716  -12.52327460013399  20.665053338369418  45.91522918707177  -17.745034278293655  19.752698476978104  0.000000
0.78  0.000000  0.000000  0.000000  -34.30414308134966  2.6631963190348933  20.5760524437737  61.15607482571675  2.3707591861117168  -12.424010515250124  20.74454784496721  46.407012322281005  -18.079063987350096  19.54835089781837  0.000000
0.7949999999999999  0.000000  0.000000  0.000000  -34.493191681839676  2.8220012167844435  20.84526066130782  61.25579147000439  2.7241356080442953  -12.313607129399843  20.830730910469114  46.883232026272665  -18.412279838360366  19.343316718772837  0.000000
0.8099999999999999  0.000000  0.000000  0.000000  -34.69347478473489  2.984155104666157  21.12194565249668  61.35794758172082  3.0671199792564656  -12.191800839211012  20.922832167529517  47.34409906092058  -18.744525612401475  19.13801415349286  0.000000
0.825  0.000000  0.000000  0.000000  -34.90567980535899  3.1485838640889017  21.406438737235895  61.46407912725716  3.3982929793613668  -12.05846691144254  21.019969201773115  47.789831175709075  -19.07580794365562  18.932749180238602  0.000000
0.84  0.000000  0.000000  0.000000  -35.12988315518217  3.314257457262701  21.69887975318649  61.5755244177697  3.71629937931451  -11.913716161679845  21.12104090960962  48.22077190808575  -19.406061763794305  18.727778570634  0.000000
0.855  0.000000  0.000000  0.000000  -35.3660619366964  3.480098968445279  21.99950752944625  61.69358947136733  4.019937941532047  -11.757813191191538  21.224948029467654  48.63704255482343  -19.735005151160284  18.523477459676343  0.000000
0.87  0.000000  0.000000  0.000000  -35.61404688912378  3.6449494629781034  22.308066209847194  61.81921413413178  4.30838996360564  -11.591328985335256  21.330796885650702  49.039033433946024  -20.062184783074393  18.320397217571188  0.000000
0.885  0.000000  0.000000  0.000000  -35.87336324248834  3.807639712172821  22.624467547277735  61.95289198508414  4.581079432736381  -11.415301420540498  21.437922816314526  49.426838010655715  -20.38705076324416  18.11923932721453  0.000000
0.8999999999999999  0.000000  0.000000  0.000000  -36.14316981549927  3.966993331564206  22.947780178310243  62.09460462795311  4.838186132124598  -11.23105196558806  21.545833081098124  49.80076789519849  -20.70889852642255  17.920727678816306  0.000000
0.9149999999999999  0.000000  0.000000  0.000000  -36.42245313277211  4.121822419268386  23.27727477540068  62.24384632312461  5.080127942221263  -11.040236434392554  21.654256587600653  50.16079074507708  -21.02688029270775  17.725825411814103  0.000000
0.9299999999999999  0.000000  0.000000  0.000000  -36.70987313669364  4.271114354339459  23.611592523601487  62.39971295553658  5.30773752578311  -10.844710556186895  21.763010713990578  50.50712388511489  -21.34009370894809  17.53535368006698  0.000000
0.945  0.000000  0.000000  0.000000  -37.00387361670176  4.413878714593737  23.949473076210058  62.56106113823949  5.522101030116437  -10.64637942537266  21.871813529880015  50.839578622865794  -21.647629805405284  17.350256185196184  0.000000
0.96  0.000000  0.000000  0.000000  -37.30306611802763  4.549284966099218  24.289350144348866  62.72674387995817  5.724128099370416  -10.446978944643073  21.98047911612873  51.15842698286496  -21.948548819386264  17.17104732503754  0.000000
0.975  0.000000  0.000000  0.000000  -37.606043860362384  4.676893975716529  24.629782921930328  62.89547384733166  5.914660478647012  -10.247705462956343  22.088963435979522  51.46369510019461  -22.241793979425935  16.998403260099128  0.000000
0.99  0.000000  0.000000  0.000000  -37.91054189480779  4.796497438575573  24.96880170835795  63.0661488338325  6.094644201258346  -10.049857140987394  22.196363708388787  51.755841545985454  -22.526469088587824  16.833807740742746  0.000000
1.005  0.000000  0.000000  0.000000  -38.214558266973576  4.9079809901820255  25.305294867204  63.23814306602096  6.264685949448356  -9.854192068915088  22.30162168370291  52.03477132970837  -22.801312814554493  16.678146388639156  0.000000
1.02  0.000000  0.000000  0.000000  -38.51640609747463  5.011488259459199  25.638152790633907  63.41070795276082  6.424968132323747  -9.661500184187501  22.403971682118417  52.30088066140256  -23.065277282603674  16.53183716000362  0.000000
1.035  0.000000  0.000000  0.000000  -38.81461507772479  5.106906501101298  25.966279362028722  63.583128235211035  6.576138693312922  -9.47262962635882  22.502617927459852  52.55420940270607  -23.317336046670302  16.39552909354843  0.000000
1.05  0.000000  0.000000  0.000000  -39.107829925934745  5.194151263635976  26.28830946257714  63.754643716099075  6.718502057424658  -9.288482121296502  22.59644513556813  52.79538190961959  -23.556498146981234  16.26970471047874  0.000000
1.065  0.000000  0.000000  0.000000  -39.39513171407454  5.273336552332993  26.603133173268535  63.924723858889394  6.852200231838221  -9.10953353456559  22.684116663761053  53.02459894163299  -23.782068657414918  16.15443925563638  0.000000
1.08  0.000000  0.000000  0.000000  -39.67510860859368  5.344842776229574  26.909509551820125  64.09220915589393  6.977134655240012  -8.93657894846402  22.76370167569604  53.24227705057678  -23.99314724220084  16.04985910501235  0.000000
1.095  0.000000  0.000000  0.000000  -39.94621564742881  5.409159525414562  27.206579808372243  64.25589371999904  7.093555781847011  -8.770444670683034  22.833191703358395  53.4480459877528  -24.188999079341663  15.956346238100739  0.000000
1.1099999999999999  0.000000  0.000000  0.000000  -40.207652198192285  5.4667041329065444  27.493283609794876  64.41516575792654  7.201232435025051  -8.611420286035482  22.89142368057469  53.64267914993229  -24.36907406531951  15.87350145127356  0.000000
1.125  0.000000  0.000000  0.000000  -40.459035831802055  5.517777002459271  27.768827870006362  64.56987273400468  7.3003449834223275  -8.459671045919535  22.937805853526374  53.826565894084744  -24.533189263672593  15.801202837236868  0.000000
1.14  0.000000  0.000000  0.000000  -40.69934862595538  5.563011589871479  28.032078256828058  64.71895929603328  7.390880754779914  -8.315654345141358  22.97138240764819  54.000565367822915  -24.68090960050475  15.739705063256936  0.000000
1.155  0.000000  0.000000  0.000000  -40.92750512154863  5.60327155908544  28.282416521058366  64.86123739629471  7.4730344289481545  -8.179699974036497  22.990961282855167  54.16458309761475  -24.811997965643496  15.689120397949761  0.000000
1.17  0.000000  0.000000  0.000000  -41.14234082809775  5.639491203566932  28.519129248865298  64.99531756967264  7.546470472737009  -8.052285362529716  22.99550866037667  54.31939557276701  -24.926309653496553  15.649501069598818  0.000000
1.185  0.000000  0.000000  0.000000  -41.34343633631027  5.67232447882828  28.741972966893552  65.12079430179213  7.611466817800143  -7.933467018927552  22.984998012058252  54.465184969988286  -25.02427217428755  15.62042941163951  0.000000
1.2  0.000000  0.000000  0.000000  -41.53026864655103  5.7028845922389  28.950420632019426  65.23679599570441  7.667861064697762  -7.823111864675118  22.95999126213058  54.602986608301194  -25.106353982616724  15.601912196806092  0.000000
1.2149999999999999  0.000000  0.000000  0.000000  -41.70254120660145  5.731388480481801  29.144540222104162  65.34311488546392  7.716469993608768  -7.721333838108137  22.92156638240864  54.73291307522151  -25.173433370291406  15.593852570177997  0.000000
1.23  0.000000  0.000000  0.000000  -41.86014224962757  5.7580871887514755  29.323419424668423  65.43905940271544  7.758017375023149  -7.628059512123525  22.870782404807667  54.855915179143835  -25.226334199410136  15.59614151891253  0.000000
1.2449999999999999  0.000000  0.000000  0.000000  -42.0034646468709  5.783253721521792  29.486131329889936  65.52486208541832  7.794549422154838  -7.543558413313743  22.808583729638052  54.971137551778746  -25.266581779977148  15.60840372643016  0.000000
1.26  0.000000  0.000000  0.000000  -42.13235040601837  5.806840490429425  29.631209731076446  65.5996763856938  7.827591639795479  -7.467758582805211  22.73597688103832  55.07819939886299  -25.29536349554966  15.630191078091876  0.000000
1.275  0.000000  0.000000  0.000000  -42.24706697101999  5.82814706966987  29.75770539175812  65.66427088804244  7.859532654950414  -7.401345251786553  22.654963134411936  55.175106893237846  -25.31506586871542  15.660295911613094  0.000000
1.29  0.000000  0.000000  0.000000  -42.34785304190128  5.846770569940184  29.86382852012828  65.71803941307765  7.891698891834452  -7.344387120164328  22.568904829881124  55.260305127477274  -25.327646352846386  15.69820867945224  0.000000
1.305  0.000000  0.000000  0.000000  -42.435624670563975  5.861708248463496  29.947740324774863  65.76202012625365  7.926558651194666  -7.29759862603232  22.48262415391506  55.33000246334082  -25.336121450849326  15.742898727702599  0.000000
1.3199999999999998  0.000000  0.000000  0.000000  -42.509229096019716  5.872913758961021  30.007025583172666  65.7941605692646  7.964619503640499  -7.261220837264051  22.40167260639537  55.38013481888397  -25.34292043003606  15.793990266778147  0.000000
1.335  0.000000  0.000000  0.000000  -42.56624429843083  5.880365757054486  30.039740693144797  65.81404006839543  8.0077408537382  -7.237873952649931  22.332872945976483  55.403095211896726  -25.351453024822355  15.849466716911067  0.000000
1.3499999999999999  0.000000  0.000000  0.000000  -42.60356316051715  5.884672312764342  30.042859678493198  65.81765294691091  8.055086875362656  -7.228139900075475  22.285267509037364  55.391104748902634  -25.364671583146386  15.909474160314376  0.000000
1.365  0.000000  0.000000  0.000000  -42.620146730611154  5.885027736123747  30.013139697668233  65.80499818839633  8.107644455951696  -7.235518821791276  22.27185722050449  55.3336240070835  -25.38586239634504  15.97253468257795  0.000000
1.38  0.000000  0.000000  0.000000  -42.61538339380174  5.877394580958362  29.944849843801496  65.77401512271739  8.164453411505843  -7.262094556920968  22.307255996321192  55.22161952397894  -25.419823474538777  16.040807178430985  0.000000
1.395  0.000000  0.000000  0.000000  -42.58806307862836  5.861513514558692  29.83385983375526  65.72125826034885  8.224459190566614  -7.3112566260423115  22.40947651742045  55.04035300274264  -25.466816099685087  16.112100525284394  0.000000
